<?xml version="1.0" encoding="UTF-8"?>
<svg id="Laag_1" xmlns="http://www.w3.org/2000/svg" xmlns:xlink="http://www.w3.org/1999/xlink" version="1.1" viewBox="0 0 690 108">
  <!-- Generator: Adobe Illustrator 29.2.0, SVG Export Plug-In . SVG Version: 2.1.0 Build 108)  -->
  <defs>
    <style>
      .st0 {
        fill: #fff;
      }
    </style>
  </defs>
  <path class="st0" d="M299.6-275.2c-20.5,0-40.1,4.2-57.9,11.7v66c11.2-2.9,23.2-4.4,35.4-4.4,52.4,0,105.6,29.9,104.5,88.9h-66.4c-.4-18.6-17.9-26.4-36.9-26.4s-35.2,4.1-36.6,22.8v4.4c1.4,16.1,16.5,20.3,41.3,22.9,56.4,4.9,105.6,18.1,108.1,79.8,34.7-27.2,57.2-69.4,57.2-117,0-82.1-66.6-148.7-148.7-148.7"/>
  <path class="st0" d="M32.5,3.8c3.5,2.5,5.7,6,6.7,10.3l-9.9,2c-.3-2.3-1.4-4.1-3.2-5.5-1.8-1.4-3.9-2.1-6.4-2.1s-4.3.6-5.8,1.7c-1.5,1.2-2.2,2.6-2.2,4.3,0,2.7,1.6,4.3,4.9,5l10.5,2.1c4,.9,7.2,2.5,9.5,4.9,2.3,2.4,3.4,5.4,3.4,9.2s-1.8,8.5-5.3,11.3-8.3,4.2-14.1,4.2-10-1.2-13.9-3.8C2.8,44.9.6,41.3,0,36.6l10.5-2.1c1.3,5.3,4.9,8,11,8s4.9-.6,6.4-1.7c1.5-1.2,2.3-2.7,2.3-4.5s-.4-2.6-1.3-3.4c-.9-.8-2.3-1.5-4.4-1.9l-10.4-2C5.4,27.2,1.2,22.5,1.2,14.9S2.8,6.9,6.2,4.1,14.1,0,19.8,0s9.2,1.3,12.7,3.8"/>
  <path class="st0" d="M88.6,37.2c3-3.1,4.6-6.9,4.6-11.5s-1.5-8.5-4.6-11.6c-3-3.1-6.8-4.7-11.2-4.7s-8.2,1.6-11.2,4.7c-3,3.1-4.6,7-4.6,11.6s1.5,8.5,4.6,11.5c3,3.1,6.8,4.6,11.2,4.6s8.2-1.5,11.2-4.6M95.7,7.5c5,5,7.5,11,7.5,18.2s-2.5,13.1-7.5,18.1c-5,4.9-11.1,7.4-18.3,7.4s-13.3-2.5-18.3-7.4-7.5-11-7.5-18.1,2.5-13.2,7.5-18.2S70.1,0,77.4,0s13.3,2.5,18.3,7.5"/>
  <path class="st0" d="M149.5,38.8c2.6-2,4.3-5.1,5.2-9.2l9.6,2c-1.2,6.1-4,10.9-8.4,14.4-4.4,3.5-9.7,5.2-15.7,5.2s-13.3-2.5-18.3-7.4c-5-4.9-7.5-11-7.5-18.2s2.5-13.2,7.5-18.2C126.9,2.5,133,0,140.2,0s11.2,1.7,15.6,5.1c4.4,3.4,7.3,8,8.5,13.8l-9.6,2.7c-.9-4-2.6-7.1-5.2-9.1-2.6-2-5.7-3.1-9.2-3.1s-8.2,1.5-11.2,4.6c-3,3.1-4.5,7-4.5,11.6s1.5,8.5,4.6,11.6c3,3.1,6.8,4.7,11.1,4.7s6.7-1,9.3-3.1"/>
  <rect class="st0" x="177.9" y="1.1" width="9.9" height="49"/>
  <path class="st0" d="M224.3,13.2l-7.2,17.5h14.3l-7.1-17.5ZM239.4,50.1l-4.2-10.5h-21.6l-4.3,10.5h-10.7L219.6,1.1h9.3l21.2,49h-10.7Z"/>
  <polygon class="st0" points="296 50.1 260.7 50.1 260.7 1.1 270.7 1.1 270.7 41.1 296 41.1 296 50.1"/>
  <path class="st0" d="M387,69.9l7.1,17.5h-14.3l7.2-17.5ZM382.3,57.8l-21.2,49h10.7l4.3-10.5h21.6l4.2,10.5h10.7l-21.2-49h-9.3,0Z"/>
  <polygon class="st0" points="458.8 57.9 458.8 90.2 431.7 57.9 423.4 57.9 423.4 106.8 433.3 106.8 433.3 75.4 460.5 106.8 468.8 106.8 468.8 57.9 458.8 57.9"/>
  <polygon class="st0" points="520 57.9 520 90.2 492.8 57.9 484.5 57.9 484.5 106.8 494.4 106.8 494.4 75.4 521.6 106.8 529.9 106.8 529.9 57.9 520 57.9"/>
  <polygon class="st0" points="545.6 57.9 545.6 106.8 582.8 106.8 582.8 97.9 555.6 97.9 555.6 86.7 580.6 86.7 580.6 77.9 555.6 77.9 555.6 66.8 582.7 66.8 582.7 57.9 545.6 57.9"/>
  <path class="st0" d="M620.9,79.9c2.3,0,4.1-.6,5.6-1.8s2.1-2.8,2.1-4.7-.7-3.5-2.1-4.7c-1.4-1.2-3.3-1.8-5.6-1.8h-13.5v13h13.5ZM628.7,106.8l-16.1-18h-5.2v18h-9.9v-49h23.5c5.3,0,9.5,1.4,12.7,4.3,3.2,2.8,4.8,6.6,4.8,11.2s-1.3,7.5-3.8,10.2c-2.5,2.7-5.9,4.4-10.2,5l16.5,18.2h-12.1,0Z"/>
  <path class="st0" d="M682.6,60.6c3.5,2.5,5.7,6,6.6,10.3l-9.9,2c-.3-2.3-1.4-4.1-3.2-5.5-1.8-1.4-3.9-2.1-6.4-2.1s-4.3.6-5.8,1.7c-1.5,1.2-2.2,2.6-2.2,4.3,0,2.7,1.6,4.3,4.9,5l10.5,2.1c4,.9,7.2,2.5,9.5,4.9,2.3,2.4,3.4,5.4,3.4,9.2s-1.8,8.5-5.3,11.3c-3.6,2.8-8.3,4.2-14.1,4.2s-10-1.3-13.9-3.8c-3.8-2.5-6-6.1-6.6-10.8l10.4-2.1c1.3,5.3,4.9,8,11,8s4.9-.6,6.4-1.7c1.5-1.2,2.3-2.7,2.3-4.5s-.4-2.6-1.3-3.4c-.8-.8-2.3-1.5-4.4-1.9l-10.4-2c-8.6-1.8-12.9-6.5-12.9-14s1.7-8,5-10.8c3.4-2.7,7.9-4.1,13.6-4.1s9.2,1.3,12.7,3.8"/>
  <polygon class="st0" points="341.9 57.9 323.2 91.7 304.7 57.9 296 57.9 296 62.2 320.3 106.8 326.2 106.8 340.8 80.2 340.8 106.8 350.5 106.8 350.5 57.9 341.9 57.9"/>
  <rect class="st0" x="260.7" y="97.9" width="36.7" height="8.9"/>
</svg>