<svg width="440" height="81" viewBox="0 0 440 81" fill="none" xmlns="http://www.w3.org/2000/svg">
<g clip-path="url(#clip0_1301_3163)">
<path d="M70.2309 40.9851V40.9978H31.4942C31.1574 40.9978 30.8441 41.1681 30.6605 41.4505L25.3084 49.7018C24.8798 50.3627 25.354 51.2357 26.1421 51.2357H66.5164C67.307 51.2357 67.8261 52.0567 67.4944 52.7745C62.7386 63.0737 52.3084 70.2387 40.2381 70.2387C23.6974 70.2387 10.2383 56.7821 10.2383 40.2389C10.2383 23.6957 23.6975 10.2385 40.2381 10.2385H50.2809C50.6721 10.2385 51.0361 10.0404 51.2488 9.7124L56.3939 1.782C56.8914 1.0141 56.3407 0 55.426 0H40.2381C40.1083 0 39.9786 0 39.8488 0.0025C17.6945 0.214 -0.238795 18.4226 0.00240488 40.682C0.237905 62.438 17.9579 80.1953 39.7139 80.4733C61.5105 80.7524 79.4425 63.6116 80.4351 42.1177C80.4636 41.5018 79.9717 40.9852 79.3552 40.9852L70.2309 40.9851Z" fill="#394939"/>
<path d="M68.6978 31.234C68.7003 31.2365 68.7003 31.2416 68.7029 31.2467H78.1582C78.7653 31.2467 79.2078 30.6675 79.047 30.082C78.2139 27.0498 77.0327 24.1602 75.5515 21.4572C75.3907 21.1641 75.0799 20.9837 74.745 20.9837H62.7969C62.802 20.9862 62.807 20.9907 62.8096 20.9958H44.7535C44.4421 20.9958 44.1515 21.1541 43.9819 21.4155L38.5335 29.8138C38.1366 30.4259 38.5759 31.2342 39.3058 31.2342L68.6978 31.234Z" fill="#394939"/>
<path d="M408.009 25.6781H414.315C414.72 25.6781 415.048 25.3501 415.048 24.9459V19.2289C415.048 18.8247 414.72 18.4966 414.315 18.4966H408.009C407.604 18.4966 407.276 18.8247 407.276 19.2289V24.9459C407.276 25.3501 407.604 25.6781 408.009 25.6781Z" fill="#394939"/>
<path d="M377.07 62.3595H383.599C384.024 62.3595 384.368 62.0151 384.368 61.5904V45.5828C384.368 45.1581 384.712 44.8144 385.136 44.8144H400.35C400.775 44.8144 401.119 44.47 401.119 44.0453V38.4593C401.119 38.0347 400.775 37.6902 400.35 37.6902H385.136C384.712 37.6902 384.368 37.3457 384.368 36.921V26.3308C384.368 25.9062 384.712 25.5617 385.136 25.5617H403C403.424 25.5617 403.769 25.2172 403.769 24.7925V19.2654C403.769 18.8408 403.424 18.4963 403 18.4963H377.07C376.646 18.4963 376.301 18.8408 376.301 19.2654V61.5903C376.301 62.015 376.646 62.3595 377.07 62.3595Z" fill="#394939"/>
<path d="M408.009 62.3595H414.315C414.72 62.3595 415.048 62.0315 415.048 61.6273V31.0626C415.048 30.6585 414.72 30.3304 414.315 30.3304H408.009C407.604 30.3304 407.276 30.6585 407.276 31.0626V61.6273C407.276 62.0315 407.604 62.3595 408.009 62.3595Z" fill="#394939"/>
<path d="M438.495 55.8832C438.122 55.9226 437.798 55.9421 437.524 55.9421C436.267 55.9421 435.237 55.7457 434.433 55.353C433.628 54.9611 433.039 54.3916 432.667 53.6453C432.293 52.9008 432.107 51.9975 432.107 50.9378V37.8094C432.107 37.483 432.372 37.2195 432.697 37.2195H438.877C439.202 37.2195 439.466 36.9552 439.466 36.6287V30.9208C439.466 30.5952 439.202 30.3309 438.877 30.3309H432.697C432.372 30.3309 432.107 30.0666 432.107 29.7401V23.6198C432.107 23.2941 431.843 23.0298 431.517 23.0298H424.926C424.6 23.0298 424.336 23.2941 424.336 23.6198V29.7401C424.336 30.0666 424.072 30.3309 423.746 30.3309H419.45C419.125 30.3309 418.86 30.5952 418.86 30.9208V36.6287C418.86 36.9552 419.125 37.2195 419.45 37.2195H423.746C424.072 37.2195 424.336 37.483 424.336 37.8094V51.3494C424.336 54.961 425.337 57.7576 427.339 59.7394C429.34 61.722 432.146 62.7128 435.758 62.7128C436.347 62.7128 436.994 62.6735 437.701 62.5949C438.198 62.5393 438.657 62.4836 439.077 62.4288C439.369 62.3903 439.585 62.1392 439.585 61.8438V55.7653C439.232 55.8046 438.868 55.8447 438.495 55.8832Z" fill="#394939"/>
<path d="M172.502 34.2754C171.168 32.8238 169.549 31.6849 167.645 30.8609C165.741 30.0362 163.534 29.6246 161.022 29.6246C157.999 29.6246 155.29 30.3512 152.897 31.8027C150.502 33.2559 148.599 35.2278 147.186 37.7201C145.773 40.2124 145.067 43.068 145.067 46.286C145.067 49.3871 145.753 52.2132 147.127 54.7645C148.501 57.3164 150.433 59.3375 152.926 60.8291C155.419 62.3207 158.314 63.0661 161.61 63.0661C163.769 63.0661 165.771 62.7322 167.616 62.0654C169.46 61.3985 171.05 60.4756 172.385 59.2981C173.5 58.3138 174.369 57.2068 174.99 55.9762C175.195 55.572 175.005 55.077 174.599 54.8773L169.792 52.5192C169.416 52.3351 168.947 52.4341 168.712 52.781C168.05 53.7571 167.204 54.5558 166.173 55.1767C164.937 55.9229 163.436 56.2953 161.669 56.2953C159.903 56.2953 158.343 55.8829 156.989 55.059C155.635 54.235 154.614 53.0674 153.927 51.5554C153.648 50.9417 153.447 50.2855 153.313 49.594C153.212 49.0728 153.606 48.5827 154.137 48.5827H175.572C175.968 48.5827 176.308 48.3069 176.393 47.9199C176.456 47.636 176.504 47.3366 176.535 47.0224C176.594 46.4537 176.625 45.8744 176.625 45.2853C176.625 43.1269 176.271 41.1157 175.564 39.2501C174.858 37.387 173.837 35.7285 172.502 34.2754ZM156.724 37.2193C157.98 36.3946 159.412 35.983 161.022 35.983C162.709 35.983 164.152 36.3946 165.35 37.2193C166.546 38.0441 167.41 39.1626 167.94 40.5757C168.071 40.9243 168.17 41.2875 168.241 41.6623C168.338 42.1696 167.93 42.636 167.414 42.636H154.39C153.836 42.636 153.426 42.1016 153.58 41.5698C153.663 41.2859 153.758 41.0127 153.868 40.7516C154.516 39.2215 155.467 38.0441 156.724 37.2193Z" fill="#394939"/>
<path d="M204.591 36.1545V31.629C204.591 30.9122 204.01 30.3305 203.293 30.3305H180.102C179.385 30.3305 178.803 30.9122 178.803 31.629V35.9206C178.803 36.6381 179.385 37.219 180.102 37.219H191.46C192.571 37.219 193.169 38.5249 192.443 39.3668L178.295 55.7525C178.091 55.989 177.979 56.2901 177.979 56.6019V61.0612C177.979 61.7779 178.561 62.3597 179.278 62.3597H203.411C204.128 62.3597 204.709 61.7779 204.709 61.0612V56.8286C204.709 56.111 204.127 55.5301 203.411 55.5301H191.386C190.28 55.5301 189.68 54.2356 190.394 53.3921L204.284 36.9941C204.483 36.7593 204.591 36.4622 204.591 36.1545Z" fill="#394939"/>
<path d="M231.91 31.8026C229.358 30.351 226.493 29.6244 223.314 29.6244C220.173 29.6244 217.328 30.351 214.777 31.8026C212.225 33.2558 210.184 35.2375 208.654 37.7494C207.123 40.2613 206.358 43.1268 206.358 46.3456C206.358 49.5644 207.123 52.4299 208.654 54.941C210.184 57.4538 212.235 59.4355 214.807 60.8879C217.377 62.3402 220.213 63.066 223.314 63.066C226.454 63.066 229.299 62.3402 231.851 60.8879C234.402 59.4355 236.444 57.4538 237.975 54.941C239.505 52.4299 240.27 49.5644 240.27 46.3456C240.27 43.0875 239.514 40.2122 238.004 37.7199C236.492 35.2276 234.461 33.2557 231.91 31.8026ZM231.056 51.3203C230.29 52.7923 229.251 53.9403 227.936 54.7643C226.62 55.589 225.08 56.0006 223.314 56.0006C221.586 56.0006 220.055 55.589 218.722 54.7643C217.386 53.9403 216.337 52.7924 215.572 51.3203C214.807 49.8484 214.424 48.1906 214.424 46.3456C214.424 44.5006 214.806 42.8518 215.572 41.3994C216.337 39.9479 217.386 38.809 218.722 37.985C220.055 37.1603 221.586 36.7479 223.314 36.7479C225.08 36.7479 226.62 37.1603 227.936 37.985C229.251 38.809 230.29 39.948 231.056 41.3994C231.821 42.8518 232.204 44.5005 232.204 46.3456C232.204 48.1907 231.821 49.8484 231.056 51.3203Z" fill="#394939"/>
<path d="M266.457 31.1551C264.632 30.1348 262.542 29.6242 260.187 29.6242C257.91 29.6242 255.919 30.125 254.211 31.1257C253.545 31.5159 252.954 31.9783 252.436 32.5109C251.954 33.0075 251.12 32.7024 251.12 32.0093V31.0847C251.12 30.6682 250.783 30.3303 250.365 30.3303H244.574C244.157 30.3303 243.82 30.6682 243.82 31.0847V61.6052C243.82 62.0216 244.157 62.3596 244.574 62.3596H250.837C251.253 62.3596 251.591 62.0216 251.591 61.6052V43.5782C251.591 42.1651 251.865 40.9484 252.416 39.9273C252.965 38.907 253.73 38.1223 254.712 37.5724C255.692 37.0235 256.811 36.7485 258.067 36.7485C259.323 36.7485 260.442 37.0235 261.424 37.5724C262.405 38.1222 263.17 38.907 263.72 39.9273C264.269 40.9485 264.543 42.1651 264.543 43.5782V61.6052C264.543 62.0216 264.881 62.3596 265.298 62.3596H271.503C271.919 62.3596 272.257 62.0216 272.257 61.6052V41.7527C272.257 39.3595 271.746 37.2484 270.726 35.423C269.705 33.5984 268.283 32.1763 266.457 31.1551Z" fill="#394939"/>
<path d="M302.011 31.4776C302.011 32.2509 301.13 32.6862 300.517 32.2157C299.956 31.7853 299.347 31.4016 298.685 31.0669C296.781 30.1055 294.612 29.6244 292.179 29.6244C289.118 29.6244 286.369 30.3706 283.937 31.8613C281.502 33.3529 279.569 35.3559 278.137 37.8671C276.704 40.379 275.988 43.2051 275.988 46.3455C275.988 49.4458 276.695 52.2719 278.108 54.8232C279.521 57.3751 281.453 59.3863 283.907 60.8584C286.359 62.3303 289.137 63.066 292.238 63.066C294.553 63.066 296.692 62.6143 298.656 61.7118C299.481 61.333 300.227 60.8748 300.898 60.3404C301.516 59.8479 302.424 60.2668 302.424 61.0563V61.4254C302.424 61.9417 302.842 62.3598 303.357 62.3598H308.79C309.306 62.3598 309.724 61.9417 309.724 61.4254V18.7241C309.724 18.2086 309.306 17.7905 308.79 17.7905H302.946C302.429 17.7905 302.011 18.2086 302.011 18.7241L302.011 31.4776ZM300.863 51.3497C300.098 52.8021 299.038 53.9402 297.685 54.765C296.33 55.5889 294.789 56.0005 293.062 56.0005C291.334 56.0005 289.785 55.5889 288.411 54.765C287.037 53.9402 285.968 52.802 285.202 51.3497C284.437 49.8982 284.054 48.229 284.054 46.3455C284.054 44.5004 284.437 42.8517 285.202 41.3994C285.968 39.9478 287.037 38.8089 288.411 37.9849C289.785 37.1602 291.334 36.7486 293.062 36.7486C294.789 36.7486 296.33 37.1602 297.685 37.9849C299.038 38.8089 300.098 39.9479 300.863 41.3994C301.629 42.8517 302.011 44.5004 302.011 46.3455C302.011 48.229 301.629 49.8982 300.863 51.3497Z" fill="#394939"/>
<path d="M119.122 43.8152C118.924 44.2227 119.221 44.6964 119.675 44.6964H133.799C134.222 44.6964 134.557 45.0581 134.518 45.4795C134.41 46.6307 134.076 48.8056 133.049 50.3225C131.929 51.9778 130.153 53.5569 128.268 54.4407C126.384 55.3235 124.343 55.7654 122.146 55.7654C119.397 55.7654 116.964 55.1174 114.845 53.8229C112.726 52.5269 111.066 50.7308 109.87 48.435C108.672 46.139 108.074 43.4602 108.074 40.3984C108.074 37.3366 108.652 34.6684 109.811 32.3913C110.968 30.1158 112.597 28.3289 114.697 27.0336C116.797 25.7384 119.221 25.0903 121.968 25.0903C124.755 25.0903 127.139 25.8078 129.122 27.2397C130.784 28.4417 132.04 29.9251 132.887 31.6925C133.158 32.2578 133.84 32.5009 134.406 32.2301L139.484 29.7959C140.052 29.5234 140.287 28.8451 140.027 28.2707C139.27 26.5966 138.176 25.0363 136.747 23.5888C135.02 21.8428 132.909 20.4395 130.418 19.3799C127.924 18.3203 125.109 17.7901 121.968 17.7901C118.789 17.7901 115.875 18.3497 113.225 19.4682C110.576 20.5868 108.26 22.1569 106.278 24.1779C104.295 26.1998 102.755 28.5939 101.656 31.3611C100.557 34.1283 100.008 37.141 100.008 40.3984C100.008 43.6558 100.567 46.6594 101.685 49.407C102.805 52.1545 104.374 54.5486 106.396 56.5893C108.417 58.6308 110.762 60.2206 113.432 61.3587C116.101 62.4968 119.005 63.0656 122.146 63.0656C124.736 63.0656 127.247 62.6335 129.682 61.7711C132.115 60.9078 134.303 59.5922 136.246 57.8264C138.189 56.0599 139.729 53.8809 140.868 51.2913C142.006 48.7 142.575 45.7176 142.575 42.3416V39.0695C142.575 38.4379 142.064 37.9256 141.432 37.9256H122.354C122.118 37.9256 121.904 38.0598 121.801 38.2726L119.122 43.8152Z" fill="#394939"/>
<path d="M355.132 50.6254L342.968 37.0003C342.511 36.4571 342.149 35.9685 341.889 35.5471C341.651 35.1593 341.53 34.6749 341.53 34.1054C341.53 33.5163 341.75 33.0393 342.203 32.6457C342.667 32.2423 343.231 32.0459 343.924 32.0459C344.577 32.0459 345.154 32.2144 345.639 32.5483C345.758 32.6301 345.876 32.7209 345.992 32.8183L346.009 32.8347C346.512 33.3486 346.785 34.0269 346.778 34.7452C346.772 35.3475 346.574 35.9128 346.204 36.3816C345.98 36.6664 346.001 37.0755 346.254 37.3341L348.507 39.6324C348.648 39.7756 348.832 39.8403 349.039 39.8484C349.242 39.8435 349.435 39.7543 349.571 39.6029C350.752 38.2807 351.412 36.5714 351.43 34.791C351.441 33.6005 351.077 32.2692 350.406 31.0403C349.488 29.3621 347.607 27.3608 343.858 27.3608C342.476 27.3608 341.23 27.6659 340.154 28.2673C339.077 28.8696 338.219 29.6919 337.605 30.7122C336.99 31.7342 336.677 32.8756 336.677 34.1053C336.677 35.1478 336.889 36.1181 337.308 36.9895C337.489 37.3683 337.718 37.7619 337.987 38.1596C338.012 38.1956 338.02 38.2406 338.011 38.2832C338.006 38.3069 337.991 38.3494 337.946 38.3773C336.903 39.0146 336.071 39.7879 335.471 40.6756C334.672 41.8555 334.267 43.2047 334.267 44.6849C334.267 46.1151 334.613 47.4087 335.296 48.5313C335.978 49.654 336.951 50.5507 338.185 51.1963C339.415 51.8394 340.873 52.1658 342.519 52.1658C343.547 52.1658 344.533 52.021 345.449 51.7346C346.359 51.4506 347.192 51.0735 347.925 50.6161C348.154 50.4729 348.369 50.3247 348.57 50.1734C348.629 50.1284 348.719 50.139 348.772 50.1979L349.856 51.3868C350.113 51.6692 350.479 51.8312 350.861 51.8312H354.591C354.881 51.8312 355.134 51.6675 355.253 51.4032C355.37 51.1389 355.325 50.8414 355.132 50.6254ZM339.086 44.4835C339.086 43.6735 339.268 42.9887 339.625 42.447C339.869 42.0771 340.209 41.7473 340.633 41.4684C340.661 41.4504 340.692 41.4422 340.723 41.4422C340.768 41.4422 340.811 41.4594 340.841 41.4929L345.348 46.439C345.378 46.4726 345.393 46.5159 345.39 46.5602C345.387 46.5848 345.378 46.6297 345.336 46.6633C345.193 46.7787 345.041 46.8875 344.88 46.9873C344.281 47.3596 343.52 47.5478 342.619 47.5478C341.906 47.5478 341.272 47.4161 340.733 47.1575C340.205 46.9038 339.794 46.5446 339.512 46.0914C339.229 45.638 339.086 45.0972 339.086 44.4835Z" fill="#394939"/>
<path d="M330.145 23.2813L329.703 22.6423L329.687 22.6546C329.687 23.3787 329.254 24.0496 328.57 24.5226C327.166 25.493 325.396 25.3777 324.575 24.1904C323.668 22.8764 324.133 21.195 325.546 20.2197C326.249 19.7337 326.991 19.5495 327.687 19.7599L327.704 19.7484L327.304 19.1691L328.206 18.5464L331.046 22.6588L330.145 23.2813ZM328.747 21.2202C328.194 20.4193 327.055 20.2171 326.059 20.9061C325.158 21.5288 324.877 22.6988 325.436 23.508C325.97 24.2805 327.172 24.4466 328.074 23.8238C329.01 23.1767 329.285 22 328.747 21.2202Z" fill="#717F71"/>
<path d="M335.996 16.8809C335.841 16.5504 335.539 16.3868 335.106 16.5176C334.702 16.6388 334.521 16.9488 334.604 17.2254C334.726 17.6321 335.246 17.6067 335.845 17.5871C336.694 17.5568 337.542 17.7442 337.811 18.6352C338.088 19.5606 337.484 20.4034 336.396 20.7315C335.387 21.035 334.242 20.7397 333.909 19.6326L334.958 19.316C335.183 19.8805 335.614 20.0712 336.169 19.9043C336.652 19.7579 336.894 19.3921 336.777 19.0035C336.678 18.6745 336.321 18.5468 335.61 18.5624C334.128 18.6049 333.742 18.1648 333.579 17.6198C333.324 16.7721 333.991 15.958 334.908 15.6806C335.836 15.4015 336.759 15.7264 337.045 16.5642L335.996 16.8809Z" fill="#717F71"/>
<path d="M342.22 19.5189L342 15.3829L341.211 15.4246L341.166 14.5687L341.955 14.527L341.867 12.8513L342.961 12.7932L343.05 14.4698L344.007 14.419L344.052 15.2749L343.095 15.3255L343.314 19.4617L342.22 19.5189Z" fill="#717F71"/>
<path d="M349.011 17.6661C349.077 18.531 349.71 19.2174 350.584 19.4122C351.251 19.5619 351.945 19.4023 352.39 18.9572L353.458 19.1953C352.792 20.1002 351.578 20.5126 350.356 20.2394C348.753 19.881 347.73 18.3779 348.021 17.0753C348.367 15.5354 349.963 14.7647 351.473 15.1018C353.147 15.4758 354.173 16.87 353.86 18.2691C353.826 18.4188 353.795 18.5597 353.727 18.7192L349.011 17.6661ZM352.847 17.7839C352.95 16.9379 352.231 16.1492 351.316 15.9446C350.443 15.7498 349.438 16.1443 349.169 16.9617L352.847 17.7839Z" fill="#717F71"/>
<path d="M360.229 24.4374L361.673 22.126C362.232 21.2309 362.084 20.5526 361.263 20.0395C360.45 19.5306 359.638 19.736 359.14 20.5321L357.691 22.8509L356.762 22.2692L359.411 18.03L360.278 18.5717L359.996 19.0234L360.013 19.0349C360.634 18.8581 361.243 19.016 361.815 19.3736C363.003 20.1166 363.477 21.3071 362.745 22.478L361.157 25.0186L360.229 24.4374Z" fill="#717F71"/>
<path d="M326.944 61.6483L327.471 61.0772L327.455 61.0624C326.749 61.2228 325.998 60.9487 325.386 60.3858C324.131 59.2296 323.855 57.4778 324.835 56.415C325.918 55.2408 327.661 55.3243 328.924 56.487C329.552 57.0655 329.895 57.7495 329.842 58.4744L329.859 58.4875L330.336 57.9712L331.142 58.7133L327.75 62.3904L326.944 61.6483ZM328.649 59.831C329.31 59.1135 329.257 57.9589 328.366 57.1383C327.56 56.3961 326.357 56.3806 325.689 57.1039C325.052 57.7945 325.154 59.0054 325.96 59.7475C326.797 60.5175 328.006 60.5274 328.649 59.831Z" fill="#717F71"/>
<path d="M336.481 62.7427C336.56 62.386 336.421 62.0726 335.998 61.9114C335.604 61.7617 335.271 61.8951 335.169 62.1659C335.018 62.5627 335.445 62.8606 335.931 63.2107C336.621 63.7049 337.178 64.371 336.847 65.2408C336.503 66.1432 335.511 66.442 334.449 66.036C333.466 65.6621 332.74 64.7277 333.151 63.6477L334.174 64.0379C334.008 64.6222 334.233 65.0362 334.774 65.2416C335.246 65.4216 335.66 65.2809 335.805 64.9012C335.927 64.5805 335.722 64.2614 335.15 63.84C333.951 62.9669 333.915 62.3827 334.117 61.8517C334.432 61.0245 335.457 60.7873 336.352 61.1293C337.257 61.4746 337.788 62.2944 337.504 63.1331L336.481 62.7427Z" fill="#717F71"/>
<path d="M341.78 67.6074L342.06 63.4713L341.273 63.4165L341.331 62.5606L342.119 62.6154L342.233 60.9389L343.325 61.015L343.211 62.6915L344.167 62.7579L344.109 63.6136L343.153 63.5474L342.873 67.6835L341.78 67.6074Z" fill="#717F71"/>
<path d="M349.227 65.2196C349.69 65.9535 350.572 66.2644 351.435 66.0288C352.095 65.8488 352.634 65.3841 352.819 64.781L353.876 64.4921C353.71 65.6041 352.828 66.5369 351.62 66.8666C350.035 67.3003 348.428 66.4477 348.076 65.1598C347.661 63.6362 348.713 62.2076 350.206 61.7993C351.862 61.3476 353.421 62.1012 353.798 63.4849C353.838 63.633 353.877 63.7721 353.89 63.9463L349.227 65.2196ZM352.675 63.5299C352.37 62.7339 351.366 62.3714 350.462 62.6193C349.598 62.8541 348.894 63.6731 349.038 64.5233L352.675 63.5299Z" fill="#717F71"/>
<path d="M362.857 60.6182L361.142 58.499C360.476 57.6775 359.787 57.5965 359.034 58.2077C358.289 58.8107 358.219 59.6461 358.81 60.3768L360.532 62.5042L359.68 63.1948L356.532 59.3042L357.327 58.6603L357.662 59.076L357.679 59.062C357.713 58.4181 358.061 57.8912 358.585 57.4665C359.673 56.5837 360.953 56.5222 361.823 57.5974L363.709 59.9293L362.857 60.6182Z" fill="#717F71"/>
</g>
<defs>
<clipPath id="clip0_1301_3163">
<rect width="439.585" height="80.4766" fill="white"/>
</clipPath>
</defs>
</svg>
