<?xml version="1.0" encoding="UTF-8"?>
<svg id="Layer_1" xmlns="http://www.w3.org/2000/svg" xmlns:xlink="http://www.w3.org/1999/xlink" version="1.1" viewBox="0 0 340 81">
  <!-- Generator: Adobe Illustrator 29.2.0, SVG Export Plug-In . SVG Version: 2.1.0 Build 108)  -->
  <defs>
    <style>
      .st0 {
        fill: none;
      }

      .st1 {
        fill: #717f71;
      }

      .st2 {
        fill: #394939;
      }

      .st3 {
        clip-path: url(#clippath);
      }
    </style>
    <clipPath id="clippath">
      <rect class="st0" x="-100" width="439.6" height="80.5"/>
    </clipPath>
  </defs>
  <g class="st3">
    <g>
      <path class="st2" d="M-29.8,41h0s-38.7,0-38.7,0c-.3,0-.7.2-.8.5l-5.4,8.3c-.4.7,0,1.5.8,1.5h40.4c.8,0,1.3.8,1,1.5-4.8,10.3-15.2,17.5-27.3,17.5s-30-13.5-30-30,13.5-30,30-30h10c.4,0,.8-.2,1-.5l5.1-7.9c.5-.8,0-1.8-1-1.8h-15.2c-.1,0-.3,0-.4,0-22.2.2-40.1,18.4-39.8,40.7.2,21.8,18,39.5,39.7,39.8,21.8.3,39.7-16.9,40.7-38.4,0-.6-.5-1.1-1.1-1.1h-9.1Z"/>
      <path class="st2" d="M-31.3,31.2s0,0,0,0h9.5c.6,0,1-.6.9-1.2-.8-3-2-5.9-3.5-8.6-.2-.3-.5-.5-.8-.5h-11.9s0,0,0,0h-18.1c-.3,0-.6.2-.8.4l-5.4,8.4c-.4.6,0,1.4.8,1.4h29.4Z"/>
      <path class="st2" d="M308,25.7h6.3c.4,0,.7-.3.7-.7v-5.7c0-.4-.3-.7-.7-.7h-6.3c-.4,0-.7.3-.7.7v5.7c0,.4.3.7.7.7Z"/>
      <path class="st2" d="M277.1,62.4h6.5c.4,0,.8-.3.8-.8v-16c0-.4.3-.8.8-.8h15.2c.4,0,.8-.3.8-.8v-5.6c0-.4-.3-.8-.8-.8h-15.2c-.4,0-.8-.3-.8-.8v-10.6c0-.4.3-.8.8-.8h17.9c.4,0,.8-.3.8-.8v-5.5c0-.4-.3-.8-.8-.8h-25.9c-.4,0-.8.3-.8.8v42.3c0,.4.3.8.8.8Z"/>
      <path class="st2" d="M308,62.4h6.3c.4,0,.7-.3.7-.7v-30.6c0-.4-.3-.7-.7-.7h-6.3c-.4,0-.7.3-.7.7v30.6c0,.4.3.7.7.7Z"/>
      <path class="st2" d="M338.5,55.9c-.4,0-.7,0-1,0-1.3,0-2.3-.2-3.1-.6-.8-.4-1.4-1-1.8-1.7-.4-.7-.6-1.6-.6-2.7v-13.1c0-.3.3-.6.6-.6h6.2c.3,0,.6-.3.6-.6v-5.7c0-.3-.3-.6-.6-.6h-6.2c-.3,0-.6-.3-.6-.6v-6.1c0-.3-.3-.6-.6-.6h-6.6c-.3,0-.6.3-.6.6v6.1c0,.3-.3.6-.6.6h-4.3c-.3,0-.6.3-.6.6v5.7c0,.3.3.6.6.6h4.3c.3,0,.6.3.6.6v13.5c0,3.6,1,6.4,3,8.4,2,2,4.8,3,8.4,3s1.2,0,1.9-.1c.5,0,1-.1,1.4-.2.3,0,.5-.3.5-.6v-6.1c-.4,0-.7,0-1.1.1Z"/>
      <path class="st2" d="M72.5,34.3c-1.3-1.5-3-2.6-4.9-3.4-1.9-.8-4.1-1.2-6.6-1.2s-5.7.7-8.1,2.2c-2.4,1.5-4.3,3.4-5.7,5.9-1.4,2.5-2.1,5.3-2.1,8.6s.7,5.9,2.1,8.5c1.4,2.6,3.3,4.6,5.8,6.1,2.5,1.5,5.4,2.2,8.7,2.2s4.2-.3,6-1c1.8-.7,3.4-1.6,4.8-2.8,1.1-1,2-2.1,2.6-3.3.2-.4,0-.9-.4-1.1l-4.8-2.4c-.4-.2-.8,0-1.1.3-.7,1-1.5,1.8-2.5,2.4-1.2.7-2.7,1.1-4.5,1.1s-3.3-.4-4.7-1.2c-1.4-.8-2.4-2-3.1-3.5-.3-.6-.5-1.3-.6-2-.1-.5.3-1,.8-1h21.4c.4,0,.7-.3.8-.7,0-.3.1-.6.1-.9,0-.6,0-1.1,0-1.7,0-2.2-.4-4.2-1.1-6-.7-1.9-1.7-3.5-3.1-5ZM56.7,37.2c1.3-.8,2.7-1.2,4.3-1.2s3.1.4,4.3,1.2c1.2.8,2.1,1.9,2.6,3.4.1.3.2.7.3,1.1,0,.5-.3,1-.8,1h-13c-.6,0-1-.5-.8-1.1,0-.3.2-.6.3-.8.6-1.5,1.6-2.7,2.9-3.5Z"/>
      <path class="st2" d="M104.6,36.2v-4.5c0-.7-.6-1.3-1.3-1.3h-23.2c-.7,0-1.3.6-1.3,1.3v4.3c0,.7.6,1.3,1.3,1.3h11.4c1.1,0,1.7,1.3,1,2.1l-14.1,16.4c-.2.2-.3.5-.3.8v4.5c0,.7.6,1.3,1.3,1.3h24.1c.7,0,1.3-.6,1.3-1.3v-4.2c0-.7-.6-1.3-1.3-1.3h-12c-1.1,0-1.7-1.3-1-2.1l13.9-16.4c.2-.2.3-.5.3-.8Z"/>
      <path class="st2" d="M131.9,31.8c-2.6-1.5-5.4-2.2-8.6-2.2s-6,.7-8.5,2.2c-2.6,1.5-4.6,3.4-6.1,5.9-1.5,2.5-2.3,5.4-2.3,8.6s.8,6.1,2.3,8.6c1.5,2.5,3.6,4.5,6.2,5.9,2.6,1.5,5.4,2.2,8.5,2.2s6-.7,8.5-2.2c2.6-1.5,4.6-3.4,6.1-5.9,1.5-2.5,2.3-5.4,2.3-8.6s-.8-6.1-2.3-8.6c-1.5-2.5-3.5-4.5-6.1-5.9ZM131.1,51.3c-.8,1.5-1.8,2.6-3.1,3.4-1.3.8-2.9,1.2-4.6,1.2s-3.3-.4-4.6-1.2c-1.3-.8-2.4-2-3.1-3.4-.8-1.5-1.1-3.1-1.1-5s.4-3.5,1.1-4.9c.8-1.5,1.8-2.6,3.1-3.4,1.3-.8,2.9-1.2,4.6-1.2s3.3.4,4.6,1.2c1.3.8,2.4,2,3.1,3.4.8,1.5,1.1,3.1,1.1,4.9s-.4,3.5-1.1,5Z"/>
      <path class="st2" d="M166.5,31.2c-1.8-1-3.9-1.5-6.3-1.5s-4.3.5-6,1.5c-.7.4-1.3.9-1.8,1.4-.5.5-1.3.2-1.3-.5v-.9c0-.4-.3-.8-.8-.8h-5.8c-.4,0-.8.3-.8.8v30.5c0,.4.3.8.8.8h6.3c.4,0,.8-.3.8-.8v-18c0-1.4.3-2.6.8-3.7.5-1,1.3-1.8,2.3-2.4,1-.5,2.1-.8,3.4-.8s2.4.3,3.4.8c1,.5,1.7,1.3,2.3,2.4.5,1,.8,2.2.8,3.7v18c0,.4.3.8.8.8h6.2c.4,0,.8-.3.8-.8v-19.9c0-2.4-.5-4.5-1.5-6.3-1-1.8-2.4-3.2-4.3-4.3Z"/>
      <path class="st2" d="M202,31.5c0,.8-.9,1.2-1.5.7-.6-.4-1.2-.8-1.8-1.1-1.9-1-4.1-1.4-6.5-1.4s-5.8.7-8.2,2.2c-2.4,1.5-4.4,3.5-5.8,6-1.4,2.5-2.1,5.3-2.1,8.5s.7,5.9,2.1,8.5c1.4,2.6,3.3,4.6,5.8,6,2.5,1.5,5.2,2.2,8.3,2.2s4.5-.5,6.4-1.4c.8-.4,1.6-.8,2.2-1.4.6-.5,1.5,0,1.5.7v.4c0,.5.4.9.9.9h5.4c.5,0,.9-.4.9-.9V18.7c0-.5-.4-.9-.9-.9h-5.8c-.5,0-.9.4-.9.9v12.8ZM200.9,51.3c-.8,1.5-1.8,2.6-3.2,3.4-1.4.8-2.9,1.2-4.6,1.2s-3.3-.4-4.7-1.2c-1.4-.8-2.4-2-3.2-3.4-.8-1.5-1.1-3.1-1.1-5s.4-3.5,1.1-4.9c.8-1.5,1.8-2.6,3.2-3.4,1.4-.8,2.9-1.2,4.7-1.2s3.3.4,4.6,1.2c1.4.8,2.4,2,3.2,3.4.8,1.5,1.1,3.1,1.1,4.9s-.4,3.6-1.1,5Z"/>
      <path class="st2" d="M19.1,43.8c-.2.4,0,.9.6.9h14.1c.4,0,.8.4.7.8-.1,1.2-.4,3.3-1.5,4.8-1.1,1.7-2.9,3.2-4.8,4.1-1.9.9-3.9,1.3-6.1,1.3s-5.2-.6-7.3-1.9c-2.1-1.3-3.8-3.1-5-5.4-1.2-2.3-1.8-5-1.8-8s.6-5.7,1.7-8c1.2-2.3,2.8-4.1,4.9-5.4,2.1-1.3,4.5-1.9,7.3-1.9s5.2.7,7.2,2.1c1.7,1.2,2.9,2.7,3.8,4.5.3.6,1,.8,1.5.5l5.1-2.4c.6-.3.8-1,.5-1.5-.8-1.7-1.9-3.2-3.3-4.7-1.7-1.7-3.8-3.1-6.3-4.2-2.5-1.1-5.3-1.6-8.4-1.6s-6.1.6-8.7,1.7c-2.6,1.1-5,2.7-6.9,4.7-2,2-3.5,4.4-4.6,7.2C.6,34.1,0,37.1,0,40.4s.6,6.3,1.7,9c1.1,2.7,2.7,5.1,4.7,7.2,2,2,4.4,3.6,7,4.8,2.7,1.1,5.6,1.7,8.7,1.7s5.1-.4,7.5-1.3c2.4-.9,4.6-2.2,6.6-3.9,1.9-1.8,3.5-3.9,4.6-6.5,1.1-2.6,1.7-5.6,1.7-8.9v-3.3c0-.6-.5-1.1-1.1-1.1h-19.1c-.2,0-.4.1-.6.3l-2.7,5.5Z"/>
      <path class="st2" d="M255.1,50.6l-12.2-13.6c-.5-.5-.8-1-1.1-1.5-.2-.4-.4-.9-.4-1.4s.2-1.1.7-1.5c.5-.4,1-.6,1.7-.6s1.2.2,1.7.5c.1,0,.2.2.4.3h0c.5.5.8,1.2.8,1.9,0,.6-.2,1.2-.6,1.6-.2.3-.2.7,0,1l2.3,2.3c.1.1.3.2.5.2.2,0,.4,0,.5-.2,1.2-1.3,1.8-3,1.9-4.8,0-1.2-.4-2.5-1-3.8-.9-1.7-2.8-3.7-6.5-3.7s-2.6.3-3.7.9c-1.1.6-1.9,1.4-2.5,2.4-.6,1-.9,2.2-.9,3.4s.2,2,.6,2.9c.2.4.4.8.7,1.2,0,0,0,0,0,.1,0,0,0,0,0,0-1,.6-1.9,1.4-2.5,2.3-.8,1.2-1.2,2.5-1.2,4s.3,2.7,1,3.8c.7,1.1,1.7,2,2.9,2.7,1.2.6,2.7,1,4.3,1s2-.1,2.9-.4c.9-.3,1.7-.7,2.5-1.1.2-.1.4-.3.6-.4,0,0,.1,0,.2,0l1.1,1.2c.3.3.6.4,1,.4h3.7c.3,0,.5-.2.7-.4.1-.3,0-.6-.1-.8ZM239.1,44.5c0-.8.2-1.5.5-2,.2-.4.6-.7,1-1,0,0,0,0,0,0,0,0,0,0,.1,0l4.5,4.9s0,0,0,.1c0,0,0,0,0,.1-.1.1-.3.2-.5.3-.6.4-1.4.6-2.3.6s-1.3-.1-1.9-.4c-.5-.3-.9-.6-1.2-1.1-.3-.5-.4-1-.4-1.6Z"/>
      <path class="st1" d="M230.1,23.3l-.4-.6h0c0,.7-.4,1.4-1.1,1.9-1.4,1-3.2.9-4-.3-.9-1.3-.4-3,1-4,.7-.5,1.4-.7,2.1-.5h0s-.4-.6-.4-.6l.9-.6,2.8,4.1-.9.6ZM228.7,21.2c-.6-.8-1.7-1-2.7-.3-.9.6-1.2,1.8-.6,2.6.5.8,1.7.9,2.6.3.9-.6,1.2-1.8.7-2.6Z"/>
      <path class="st1" d="M236,16.9c-.2-.3-.5-.5-.9-.4-.4.1-.6.4-.5.7.1.4.6.4,1.2.4.8,0,1.7.2,2,1,.3.9-.3,1.8-1.4,2.1-1,.3-2.2,0-2.5-1.1l1-.3c.2.6.7.8,1.2.6.5-.1.7-.5.6-.9,0-.3-.5-.5-1.2-.4-1.5,0-1.9-.4-2-.9-.3-.8.4-1.7,1.3-1.9.9-.3,1.9,0,2.1.9l-1,.3Z"/>
      <path class="st1" d="M242.2,19.5l-.2-4.1h-.8s0-.8,0-.8h.8s0-1.7,0-1.7h1.1c0,0,0,1.6,0,1.6h1c0,0,0,.8,0,.8h-1c0,0,.2,4.2.2,4.2h-1.1Z"/>
      <path class="st1" d="M249,17.7c0,.9.7,1.6,1.6,1.7.7.1,1.4,0,1.8-.5l1.1.2c-.7.9-1.9,1.3-3.1,1-1.6-.4-2.6-1.9-2.3-3.2.3-1.5,1.9-2.3,3.5-2,1.7.4,2.7,1.8,2.4,3.2,0,.1,0,.3-.1.5l-4.7-1.1ZM252.8,17.8c.1-.8-.6-1.6-1.5-1.8-.9-.2-1.9.2-2.1,1l3.7.8Z"/>
      <path class="st1" d="M260.2,24.4l1.4-2.3c.6-.9.4-1.6-.4-2.1-.8-.5-1.6-.3-2.1.5l-1.4,2.3-.9-.6,2.6-4.2.9.5-.3.5h0c.6-.2,1.2,0,1.8.4,1.2.7,1.7,1.9.9,3.1l-1.6,2.5-.9-.6Z"/>
      <path class="st1" d="M226.9,61.6l.5-.6h0c-.7.1-1.5-.1-2.1-.7-1.3-1.2-1.5-2.9-.6-4,1.1-1.2,2.8-1.1,4.1,0,.6.6,1,1.3.9,2h0s.5-.5.5-.5l.8.7-3.4,3.7-.8-.7ZM228.6,59.8c.7-.7.6-1.9-.3-2.7-.8-.7-2-.8-2.7,0-.6.7-.5,1.9.3,2.6.8.8,2,.8,2.7,0Z"/>
      <path class="st1" d="M236.5,62.7c0-.4,0-.7-.5-.8-.4-.1-.7,0-.8.3-.2.4.3.7.8,1,.7.5,1.2,1.2.9,2-.3.9-1.3,1.2-2.4.8-1-.4-1.7-1.3-1.3-2.4l1,.4c-.2.6,0,1,.6,1.2.5.2.9,0,1-.3.1-.3,0-.6-.7-1.1-1.2-.9-1.2-1.5-1-2,.3-.8,1.3-1.1,2.2-.7.9.3,1.4,1.2,1.2,2l-1-.4Z"/>
      <path class="st1" d="M241.8,67.6l.3-4.1h-.8c0,0,0-.9,0-.9h.8c0,0,.1-1.6.1-1.6h1.1c0,0-.1,1.8-.1,1.8h1c0,0,0,.9,0,.9h-1c0,0-.3,4.1-.3,4.1h-1.1Z"/>
      <path class="st1" d="M249.2,65.2c.5.7,1.3,1,2.2.8.7-.2,1.2-.6,1.4-1.2l1.1-.3c-.2,1.1-1,2-2.3,2.4-1.6.4-3.2-.4-3.5-1.7-.4-1.5.6-3,2.1-3.4,1.7-.5,3.2.3,3.6,1.7,0,.1,0,.3,0,.5l-4.7,1.3ZM252.7,63.5c-.3-.8-1.3-1.2-2.2-.9-.9.2-1.6,1.1-1.4,1.9l3.6-1Z"/>
      <path class="st1" d="M262.9,60.6l-1.7-2.1c-.7-.8-1.4-.9-2.1-.3-.7.6-.8,1.4-.2,2.2l1.7,2.1-.9.7-3.1-3.9.8-.6.3.4h0c0-.7.4-1.2.9-1.6,1.1-.9,2.4-.9,3.2.1l1.9,2.3-.9.7Z"/>
    </g>
  </g>
</svg>