<?xml version="1.0" encoding="UTF-8"?>
<svg id="Laag_1" xmlns="http://www.w3.org/2000/svg" xmlns:xlink="http://www.w3.org/1999/xlink" version="1.1" viewBox="0 0 496.1 496.1">
  <!-- Generator: Adobe Illustrator 29.2.0, SVG Export Plug-In . SVG Version: 2.1.0 Build 108)  -->
  <defs>
    <style>
      .st0 {
        fill: #afca0b;
      }

      .st1 {
        fill: #221e44;
      }
    </style>
  </defs>
  <path class="st0" d="M301.2,153.1h-14.3l-4.5,35.9h11.2c13.5,0,21.1-8.7,21.1-23.8s-5-12.1-13.5-12.1Z"/>
  <path class="st0" d="M293.3,31.7C110.6,31.9,26.4,122.4,24.6,238.9c-1.8,116.5,65.6,212,182.6,213.7,117,1.6,264.4-46.4,264.4-207.5S410.3,31.7,293.3,31.7ZM221.8,258.1h-6.9c-4.7,0-6.7,2.4-8.2,14l-.5,6.3h13.7l-3.1,24.8h-13.7l-8.1,66.1h-31.3l8.1-66.1h-7.9l3.1-24.8h7.9l1.6-13.1c2.6-21.9,13.4-33.5,32.7-33.5h15.8l-3.2,26.3ZM180.1,217.8c-23.2,0-41-20.3-38.3-43.2l6.1-50.3h33.2l-5.8,48.2c-.8,5.9,3.8,11.1,9.8,11.1h14.5l7.1-59.1h31.7l-11.3,93.3h-47ZM267.2,309l-7.4,60.3h-31.1l11.3-90.9c16.3,0,29.2,14.3,27.2,30.6ZM326.1,341.6h15.1l-3.7,30.1h-25.2c-14.5,0-24.2-7.2-21.1-32.5l4.4-35.9h-7.9l3.1-24.8h7.9c2.3-17.6,17.7-31.9,35.3-31.9l-3.7,31.9h13.2l-3.1,24.8h-13.7l-3.7,31.9c-.6,4.1.7,6.4,3.1,6.4ZM291.3,217.6h-29.2l15.6,7.1-1.9,15.3-3.5,29c-16.8,0-29.7-14.7-27.6-31.1l14.2-113.6h48.4c26.2,0,40.1,13.7,40.1,39.2s-21,54.1-56.1,54.1Z"/>
  <polygon class="st1" points="293.7 189 293.6 189 293.6 189 293.7 189"/>
</svg>