<?xml version="1.0" encoding="UTF-8"?>
<svg id="Laag_1" xmlns="http://www.w3.org/2000/svg" version="1.1" xmlns:xlink="http://www.w3.org/1999/xlink" viewBox="0 0 496.1 496.1">
  <!-- Generator: Adobe Illustrator 29.2.0, SVG Export Plug-In . SVG Version: 2.1.0 Build 108)  -->
  <defs>
    <style>
      .st0 {
        fill: #fff;
      }

      .st1 {
        fill: #afca0b;
      }

      .st2 {
        fill: #221e44;
      }
    </style>
  </defs>
  <path class="st1" d="M24.6,238.9c-1.8,116.5,65.6,212,182.6,213.7,117,1.6,264.4-46.4,264.4-207.5S410.3,31.7,293.3,31.7C110.6,31.9,26.4,122.4,24.6,238.9Z"/>
  <path class="st0" d="M267.2,309l-7.4,60.3h-31.1l11.3-90.9h0c16.3,0,29.2,14.3,27.2,30.6Z"/>
  <path class="st0" d="M337.5,371.7l3.7-30.1h-15.1c-2.4,0-3.7-2.3-3.1-6.4l3.7-31.9h13.7l3.1-24.8h-13.2l3.7-31.9c-17.6,0-33,14.3-35.3,31.9h-7.9l-3.1,24.8h7.9l-4.4,35.9c-3.1,25.3,6.6,32.5,21.1,32.5h25.1Z"/>
  <path class="st0" d="M206.7,272.1c1.5-11.6,3.5-14,8.2-14h6.9l3.2-26.3h-15.8c-19.3,0-30.1,11.6-32.7,33.5l-1.6,13.1h-7.9l-3.1,24.8h7.9l-8.1,66.1h31.3l8.1-66.1h13.7l3.1-24.8h-13.7l.5-6.3Z"/>
  <g>
    <path class="st2" d="M199.6,183.6h-14.5c-6,0-10.6-5.2-9.8-11.1l5.8-48.2h-33.2l-6.1,50.3c-2.7,22.9,15.1,43.2,38.3,43.2h47l11.3-93.3h-31.7l-7.1,59.1Z"/>
    <path class="st2" d="M307.2,124.3h-48.3l-14.2,113.6c-2.1,16.4,10.8,31.1,27.6,31.1l3.5-29,1.9-15.3h0l-15.6-7.1h29.2c35.1,0,56.1-20.1,56.1-54.1,0-25.5-13.9-39.2-40.1-39.2ZM293.7,189h-11.3l4.5-35.9h14.3c8.5,0,13.5,4.5,13.5,12.1,0,15.1-7.6,23.8-21.1,23.8Z"/>
  </g>
</svg>